<svg xmlns="http://www.w3.org/2000/svg" width="1200" height="628" viewBox="0 0 1200 628">
  <defs>
    <linearGradient id="zemin" x1="0" y1="0" x2="1" y2="1">
      <stop offset="0" stop-color="#0b1d3a"/>
      <stop offset="1" stop-color="#1d4a8f"/>
    </linearGradient>
  </defs>
  <rect width="1200" height="628" fill="url(#zemin)"/>
  <g transform="translate(790 120) scale(10)" opacity="0.16">
    <path d="M22 0 44 10v22L22 42 0 32V10Z" fill="#f59e0b"/>
    <path d="M22 0 44 10 22 20 0 10Z" fill="#fbbf24"/>
    <path d="M22 20v22L0 32V10Z" fill="#d97706"/>
  </g>
  <rect x="76" y="66" width="460" height="62" rx="31" fill="#f59e0b"/>
  <text x="306" y="108" text-anchor="middle" font-family="Segoe UI, Arial, sans-serif" font-size="30" font-weight="700" fill="#0b1d3a">2026 güncel vergi oranları</text>
  <text x="76" y="248" font-family="Segoe UI, Arial, sans-serif" font-size="74" font-weight="700" fill="#ffffff">Paketin gümrükte mi kaldı?</text>
  <text x="76" y="340" font-family="Segoe UI, Arial, sans-serif" font-size="74" font-weight="700" fill="#f59e0b">Panik yok, plan var.</text>
  <text x="76" y="412" font-family="Segoe UI, Arial, sans-serif" font-size="34" fill="#c7d4ea">Vergini 30 saniyede hesapla — değmezse açıkça söyleriz.</text>
  <rect x="76" y="466" width="400" height="86" rx="20" fill="#f59e0b"/>
  <text x="276" y="522" text-anchor="middle" font-family="Segoe UI, Arial, sans-serif" font-size="36" font-weight="700" fill="#0b1d3a">Ücretsiz Hesapla →</text>
  <g transform="translate(824 556) scale(1.1)">
    <path d="M22 0 44 10v22L22 42 0 32V10Z" fill="#f59e0b"/>
    <path d="M22 0 44 10 22 20 0 10Z" fill="#fbbf24"/>
    <path d="M22 20v22L0 32V10Z" fill="#d97706"/>
  </g>
  <text x="886" y="590" font-family="Segoe UI, Arial, sans-serif" font-size="30" font-weight="600" fill="#ffffff">gümrüktekalmasın.com</text>
</svg>
